<?xml version="1.0" encoding="UTF-8" standalone="no"?>
<svg
   width="6.25in"
   height="1.5in"
   viewBox="0 0 600 144.00002"
   version="1.1"
   xml:space="preserve"
   style="clip-rule:evenodd;fill-rule:evenodd;stroke-linejoin:round;stroke-miterlimit:1.41421"
   id="svg39"
   sodipodi:docname="rust-edu-banner.svg"
   inkscape:version="1.1.2 (0a00cf5339, 2022-02-04)"
   xmlns:inkscape="http://www.inkscape.org/namespaces/inkscape"
   xmlns:sodipodi="http://sodipodi.sourceforge.net/DTD/sodipodi-0.dtd"
   xmlns:xlink="http://www.w3.org/1999/xlink"
   xmlns="http://www.w3.org/2000/svg"
   xmlns:svg="http://www.w3.org/2000/svg"
   xmlns:rdf="http://www.w3.org/1999/02/22-rdf-syntax-ns#"
   xmlns:cc="http://creativecommons.org/ns#"
   xmlns:dc="http://purl.org/dc/elements/1.1/"
   xmlns:serif="http://www.serif.com/"><sodipodi:namedview
   id="namedview86"
   pagecolor="#505050"
   bordercolor="#eeeeee"
   borderopacity="1"
   inkscape:pageshadow="0"
   inkscape:pageopacity="0"
   inkscape:pagecheckerboard="0"
   inkscape:document-units="in"
   showgrid="false"
   inkscape:zoom="2.155"
   inkscape:cx="285.84687"
   inkscape:cy="16.009281"
   inkscape:window-width="1920"
   inkscape:window-height="1080"
   inkscape:window-x="1920"
   inkscape:window-y="0"
   inkscape:window-maximized="1"
   inkscape:current-layer="svg39" /><metadata
   id="metadata45"><rdf:RDF><cc:Work
       rdf:about=""><dc:format>image/svg+xml</dc:format><dc:type
         rdf:resource="http://purl.org/dc/dcmitype/StillImage" /></cc:Work></rdf:RDF></metadata><defs
   id="defs43"><rect
   x="178.01431"
   y="12.710022"
   width="605.45404"
   height="220.99274"
   id="rect5564" /><linearGradient
   id="2"><stop
     id="M" /><stop
     stop-opacity="0"
     id="N"
     offset="1" /></linearGradient><linearGradient
   id="3"><stop
     stop-color="#bbb"
     id="O" /><stop
     stop-color="#adadad"
     id="P"
     offset="1" /></linearGradient><marker
   id="4"
   orient="auto"><path
     transform="scale(0.4)"
     d="M 5.77,0 -2.88,5 V -5 Z"
     id="Q"
     style="fill-rule:evenodd;stroke:#000000;stroke-width:1.25" /></marker><linearGradient
   id="5"><stop
     stop-opacity="0"
     id="R" /><stop
     stop-color="#5fff00"
     offset="0.5"
     id="S" /><stop
     stop-opacity="0"
     id="T"
     offset="1" /></linearGradient><marker
   id="6"
   orient="auto"><path
     transform="scale(0.8)"
     d="M 5.77,0 -2.88,5 V -5 Z"
     id="U"
     style="fill-rule:evenodd;stroke:#000000;stroke-width:1.25" /></marker><marker
   id="7"
   orient="auto"><path
     transform="scale(-0.4)"
     d="M 5.77,0 -2.88,5 V -5 Z"
     id="V"
     style="fill:#ffffff;fill-rule:evenodd;stroke:#ffffff;stroke-width:1.25" /></marker><marker
   orient="auto"
   id="8"><path
     id="W"
     d="M 5.77,0 -2.88,5 V -5 Z"
     transform="scale(-0.4)"
     style="fill:#ffffff;fill-rule:evenodd;stroke:#ffffff;stroke-width:1.25" /></marker><marker
   id="9"
   orient="auto"><path
     transform="scale(-0.8)"
     d="M 5.77,0 -2.88,5 V -5 Z"
     id="X"
     style="fill:#ffffff;fill-rule:evenodd;stroke:#ffffff;stroke-width:1.25" /></marker><marker
   id="A"
   orient="auto"><path
     transform="matrix(1.1,0,0,1.1,-5.5,0)"
     d="M 8.7185878,4.0337352 -2.2072895,0.01601326 8.7185884,-4.0017078 c -1.7454984,2.3720609 -1.7354408,5.6174519 -6e-7,8.035443 z"
     id="Y"
     style="fill-rule:evenodd;stroke-width:0.625;stroke-linejoin:round" /></marker><marker
   id="B"
   orient="auto"><path
     transform="scale(-0.4)"
     d="M 5.77,0 -2.88,5 V -5 Z"
     id="Z"
     style="fill:#ffffff;fill-rule:evenodd;stroke:#ffffff;stroke-width:1.25" /></marker><marker
   id="C"
   orient="auto"><path
     transform="scale(-0.4)"
     d="M 5.77,0 -2.88,5 V -5 Z"
     id="a"
     style="fill:#ffffff;fill-rule:evenodd;stroke:#ffffff;stroke-width:1.25" /></marker><filter
   id="D"
   x="-0.0098843267"
   y="-0.026879136"
   width="1.0197687"
   height="1.0537583"><feGaussianBlur
     id="b"
     stdDeviation="0.40343" /></filter><radialGradient
   id="E"
   gradientUnits="userSpaceOnUse"
   gradientTransform="matrix(-0.02594844,0.28747106,-0.15676756,-0.01415055,-103.66116,355.89378)"
   cx="189.00999"
   cy="281.42999"
   r="161.71001"
   xlink:href="#3" /><radialGradient
   id="F"
   cx="35.592999"
   cy="120.46"
   r="16.636"
   gradientTransform="matrix(0.45165687,0,0,0.09944751,19.517089,108.48346)"
   gradientUnits="userSpaceOnUse"
   xlink:href="#2" /><filter
   height="2.0215883"
   y="-0.51079422"
   width="1.1015944"
   x="-0.050797217"
   id="G"><feGaussianBlur
     id="c"
     stdDeviation="0.70422" /></filter>


	
	
	
	
	
<rect
   x="178.01431"
   y="12.710022"
   width="605.45404"
   height="220.99274"
   id="rect5564-3" /><rect
   x="178.01431"
   y="12.710022"
   width="605.45404"
   height="220.99274"
   id="rect5564-3-7" /><rect
   x="178.01431"
   y="12.710022"
   width="605.45404"
   height="220.99274"
   id="rect5564-3-3" /></defs>
    
<g
   transform="matrix(-2.7921499,-1.0476856,0.63001507,-0.97013301,847.3399,1146.9181)"
   id="1"><desc
   id="desc1634">https://svg-clipart.com/symbol/u5PlD7h-desktop-keyboard-clipart</desc><text
   font-size="12"
   id="I"
   y="380.95001"
   x="210.28"
   style="font-size:12px;font-family:'Bitstream Vera Sans'"><tspan
     y="380.95001"
     x="210.28"
     id="d" /></text>
</g><flowRoot
   xml:space="preserve"
   id="flowRoot1644"
   style="font-style:normal;font-variant:normal;font-weight:normal;font-stretch:normal;font-size:64px;line-height:72px;font-family:impact;-inkscape-font-specification:impact;fill:#ffffff;stroke:#000000;stroke-width:4;stroke-miterlimit:4;stroke-dasharray:none;stroke-opacity:1"
   transform="translate(2.6088,-128.27301)"><flowRegion
     id="flowRegion1646"><rect
       id="rect1648"
       width="165.09021"
       height="115.69846"
       x="153.58803"
       y="81.697128" /></flowRegion><flowPara
     id="flowPara1650" /></flowRoot><g
   id="g19831"
   transform="matrix(0.31054429,0,0,0.31054429,198.75306,-18.217026)"><path
     style="fill:#ffffff;stroke-width:0.141614"
     d="m 519.29557,317.00533 c -1.10564,1.90914 -25.47622,21.62031 -41.23597,60.91538 4.05824,4.32578 10.26812,6.06434 16.6307,3.63994 1.13966,-15.96679 7.32895,-31.46352 17.18778,-44.04152 -7.14788,13.28093 -10.63565,28.56896 -9.51742,43.62797 -0.29949,-13.66082 3.15983,-27.42619 10.14263,-39.19099 -3.20554,12.85261 -1.47061,24.84897 3.70658,36.34829 -2.21575,-10.21246 -12.45975,-20.48422 12.90025,-58.01807 0.67057,-2.35327 3.53476,-13.90601 1.90165,-17.76464 -3.17753,-1.24013 -9.83536,11.09685 -11.7162,14.48364 z"
     id="path2230" /><path
     style="fill:#ffffff;stroke-width:0.141614"
     d="m 521.23974,259.65233 c 16.97894,20.00656 34.50705,17.06985 25.17371,30.48917 -4.71552,6.46437 -8.59451,8.78364 -12.60761,10.90151 0.66355,0.8848 1.00404,1.95803 1.21649,3.03492 6.29666,-3.02952 12.18795,-7.57815 15.42379,-13.90045 5.80457,-11.86365 -4.33932,-14.76979 -11.828,-19.58928 -5.00604,-3.17016 -9.59729,-7.01319 -13.52229,-11.45266 -1.28723,0.15858 -2.56523,0.38657 -3.85609,0.51679"
     id="path2228" /><path
     style="fill:#ffffff;stroke-width:0.141614"
     d="m 351.52106,195.48647 c -3.62534,0.88202 -43.34644,18.92571 -55.10124,65.98971 50.47125,-11.886 78.72018,7.62587 94.67898,12.45704 44.73594,13.80748 67.58331,-13.15784 127.45179,20.56837 -2.18316,-34.92846 -18.20669,-64.22764 -24.72915,-72.06154 -45.09554,-18.09929 -93.72279,-27.31798 -142.30038,-26.95358"
     id="path2226" /><path
     style="fill:#ffffff;stroke-width:0.141614"
     d="m 372.00333,164.11955 c -43.59488,6.14609 -87.20261,12.19741 -130.79205,18.3878 23.80626,12.99609 47.62383,25.97146 71.43773,38.9526 11.12028,-14.0111 31.74238,-29.37541 41.4324,-29.41092 2.69647,-0.11872 5.38604,0.20792 8.08473,0.2329 60.96491,1.29187 130.27693,22.33882 135.43179,29.25339 1.32592,1.76693 11.31005,18.13884 17.03621,35.7501 26.11113,-3.6645 52.21134,-7.41406 78.32008,-11.08816 -55.67262,-29.86598 -111.31528,-59.78522 -167.00756,-89.60623 -17.98775,2.43513 -35.96004,5.04007 -53.94333,7.52852"
     id="path2224" /><path
     style="fill:#ffffff;fill-opacity:1;stroke-width:0.146048;stroke-miterlimit:1.41421;stroke-dasharray:none"
     d="m 418.86461,154.25202 c 9.93485,-1.79727 -6.59965,-8.67088 174.97226,88.74262 0.83502,0.44841 1.81987,0.86074 2.2329,1.79092 0.37429,1.78745 -0.2846,4.35897 -2.44517,4.58655 -21.55701,3.08753 -43.12156,6.12131 -64.67981,9.18995 13.92188,13.51408 25.65836,14.17737 26.42526,24.30763 0.93032,10.78222 -10.32834,20.13627 -20.16502,24.83391 -1.94535,24.65531 -28.55434,35.46658 -16.27857,68.27587 2.29879,4.86181 -3.80048,7.02712 -5.45264,3.95276 -4.61735,-9.44683 -5.08959,-17.78663 -5.46058,-18.89766 -1.73776,8.26997 -2.34842,10.92276 -2.43078,20.55395 -0.3632,3.05112 -5.45381,3.42559 -6.37971,0.55479 -0.30363,-2.78839 -0.2115,-5.60573 -0.20825,-8.40627 -1.88917,10.42253 0.11288,10.11131 -6.177,11.68643 -7.58495,1.91074 -19.43181,-3.83083 -17.83923,-8.51442 17.12138,-42.41756 34.38429,-49.84557 45.03162,-67.62566 8.85111,-14.3101 10.7214,-8.65623 19.56143,-16.34997 5.3089,-4.6039 5.6386,-9.41835 4.32622,-11.63926 -0.6354,-0.63246 -17.67884,-9.21381 -26.30846,-21.08428 -0.66065,0.0605 -1.31386,0.1436 -1.96411,0.22697 3.26828,10.86629 5.35218,22.09395 6.12327,33.41851 0.31064,2.75262 -2.39058,4.7698 -5.16121,3.23122 -61.09237,-33.62207 -82.34185,-5.09948 -129.98424,-21.2454 -16.17145,-5.45825 -41.08278,-22.32358 -89.50557,-11.16461 -3.11431,0.55239 -4.30343,-2.51243 -3.63384,-4.61834 3.30757,-12.96861 9.19258,-25.27466 17.20793,-35.99567 -23.79698,-12.96423 -47.59694,-25.92858 -71.37866,-38.91941 -2.49673,-1.36619 -1.20534,-5.71939 1.51575,-5.90125 59.35109,-8.33219 118.70695,-16.64516 178.05621,-24.98988"
     id="path2022" /><path
     d="m 521.23974,259.65233 c 1.29086,-0.13022 2.56886,-0.35821 3.85609,-0.51679 15.52279,17.55789 32.93634,15.53713 25.35029,31.04194 -3.23571,6.32246 -9.12713,10.87093 -15.42379,13.90045 -0.21229,-1.07702 -0.55279,-2.15025 -1.21649,-3.03492 3.98022,-2.10057 7.87042,-4.40743 12.60761,-10.90151 7.8973,-11.35456 -3.53726,-11.21954 -17.20662,-22.54131 -2.93252,-2.3548 -5.53711,-5.08459 -7.96709,-7.94786 z"
     id="path2028"
     style="stroke-width:0.146048;stroke-miterlimit:1.41421;stroke-dasharray:none" /><path
     d="m 531.01176,302.52183 c 1.61781,3.82252 -1.20961,15.33599 -1.90165,17.76465 -24.84906,36.77756 -15.43732,46.32498 -12.90026,58.01806 -5.16668,-11.47602 -6.91772,-23.47344 -3.70658,-36.34829 -6.9828,11.7648 -10.44197,25.53018 -10.14262,39.191 -1.11823,-15.05902 2.36952,-30.3469 9.51742,-43.62798 -9.85883,12.578 -16.04827,28.07472 -17.18778,44.04152 -6.35019,2.41957 -12.5634,0.6955 -16.63071,-3.63994 15.85102,-39.52229 39.97564,-58.73909 41.23598,-60.91538 2.11616,-3.81074 8.61678,-15.69337 11.7162,-14.48364 z"
     id="path2030"
     style="stroke-width:0.141614" /><g
     id="Layer-1"
     serif:id="Layer 1"
     transform="matrix(0.34007396,0,0,0.34007396,184.31112,188.51573)">
        <g
   transform="translate(1009.4,506.362)"
   id="g4">
            <path
   d="m 0,-7.203 -12.072,-25.006 c 0.063,-0.947 0.111,-1.898 0.111,-2.853 0,-28.346 -29.478,-54.471 -79.069,-75.389 v 17.393 c -4.836,-1.919 -9.871,-3.787 -15.117,-5.593 v -8.108 c -70.874,-25.56 -176.383,-41.778 -294.241,-41.778 -102.973,0 -196.529,12.38 -265.791,32.554 v 28.246 h -0.002 v -34.188 c -70.96,22.55 -114.954,53.877 -114.954,88.515 0,5.46 1.101,10.838 3.217,16.113 l -7.228,12.867 c 0,0 -5.792,7.512 4.406,23.362 8.994,13.977 54.048,68.685 77.827,97.335 10.214,14.687 17.141,23.734 17.746,22.859 0.955,-1.386 -6.351,-28.961 -26.635,-60.423 -9.466,-16.895 -20.768,-39.283 -27.554,-55.819 18.942,11.99 130.23,68.029 357.232,67.801 231.994,-0.232 335.115,-72.851 346.433,-82.737 -3.955,15.889 -17.468,48.033 -28.245,70.638 -17.706,32.331 -24.12,60.478 -23.296,61.87 0.524,0.878 6.565,-8.441 15.476,-23.543 C -51.025,87.37 -11.739,30.974 -3.889,16.608 5.007,0.323 0,-7.203 0,-7.203"
   style="fill:#a52b00;fill-rule:nonzero"
   id="path2" />
        </g>
        <g
   transform="translate(1079.49,294.885)"
   id="g8">
            <path
   d="m 0,204.135 -79.343,-58.446 c -0.745,-2.6 -1.49,-5.201 -2.26,-7.781 l 26.062,-37.754 c 2.66,-3.84 3.196,-8.832 1.469,-13.211 -1.731,-4.358 -5.515,-7.482 -9.99,-8.247 l -44.066,-7.479 c -1.709,-3.485 -3.498,-6.916 -5.294,-10.319 L -94.907,18.51 c 1.903,-4.317 1.505,-9.335 -1.022,-13.254 -2.517,-3.937 -6.786,-6.237 -11.338,-6.058 l -44.724,1.625 c -2.315,-3.016 -4.667,-6.003 -7.067,-8.937 l 10.278,-45.432 c 1.042,-4.612 -0.274,-9.443 -3.487,-12.794 -3.195,-3.339 -7.838,-4.722 -12.253,-3.639 l -43.562,10.709 c -2.82,-2.493 -5.688,-4.953 -8.588,-7.365 l 1.567,-46.641 c 0.168,-4.721 -2.033,-9.208 -5.812,-11.829 -3.777,-2.636 -8.57,-3.032 -12.701,-1.074 l -40.638,19.321 c -3.273,-1.878 -6.565,-3.737 -9.892,-5.537 l -7.181,-45.961 c -0.729,-4.656 -3.724,-8.612 -7.919,-10.418 -4.185,-1.817 -8.976,-1.228 -12.648,1.536 l -36.232,27.185 c -3.569,-1.185 -7.153,-2.32 -10.779,-3.407 l -15.617,-43.585 c -1.588,-4.443 -5.25,-7.706 -9.716,-8.624 -4.45,-0.909 -9.028,0.632 -12.114,4.08 l -30.499,34.119 c -3.685,-0.423 -7.377,-0.81 -11.076,-1.131 l -23.549,-39.676 c -2.384,-4.018 -6.597,-6.464 -11.139,-6.464 -4.529,0 -8.75,2.446 -11.118,6.464 l -23.555,39.676 c -3.701,0.321 -7.408,0.708 -11.088,1.131 l -30.499,-34.119 c -3.09,-3.448 -7.684,-4.989 -12.122,-4.08 -4.46,0.93 -8.128,4.181 -9.707,8.624 l -15.629,43.585 c -3.621,1.087 -7.205,2.23 -10.78,3.407 l -36.22,-27.185 c -3.683,-2.774 -8.478,-3.361 -12.668,-1.536 -4.181,1.806 -7.188,5.762 -7.913,10.418 l -7.186,45.961 c -3.322,1.8 -6.614,3.649 -9.895,5.537 l -40.634,-19.321 c -4.127,-1.966 -8.945,-1.562 -12.704,1.074 -3.773,2.621 -5.98,7.108 -5.81,11.829 l 1.562,46.641 c -2.894,2.412 -5.756,4.872 -8.591,7.365 l -43.554,-10.709 c -4.423,-1.074 -9.062,0.3 -12.265,3.639 -3.221,3.351 -4.526,8.182 -3.491,12.794 l 10.257,45.432 c -2.378,2.945 -4.733,5.921 -7.042,8.937 l -44.724,-1.625 c -4.513,-0.135 -8.821,2.121 -11.343,6.058 -2.527,3.919 -2.91,8.937 -1.029,13.254 l 18.528,42.388 c -1.799,3.403 -3.586,6.834 -5.309,10.319 l -44.063,7.479 c -4.479,0.754 -8.252,3.876 -9.994,8.247 -1.728,4.379 -1.167,9.371 1.474,13.211 l 26.066,37.754 c -0.201,0.667 -0.387,1.339 -0.587,2.008 l -73.696,78.285 c 0,0 -11.296,8.851 5.147,29.654 14.5,18.351 88.951,91.096 128.271,129.205 16.606,19.348 27.984,31.329 29.172,30.293 1.876,-1.645 -7.972,-36.847 -40.682,-78.149 -25.216,-37.056 -57.941,-94.049 -50.267,-100.618 0,0 8.729,-11.081 26.242,-19.057 0.641,0.512 -0.662,-0.507 0,0 0,0 369.595,170.491 712.429,2.884 39.164,-7.025 62.873,13.955 62.873,13.955 8.176,4.74 -12.996,63.344 -30.407,102.137 -23.679,44.05 -27.151,78.422 -25.144,79.614 1.268,0.757 9.883,-12.353 22.172,-33.217 C -67.814,332.649 -10.492,252.1 0,232.534 11.895,210.352 0,204.135 0,204.135"
   style="fill:#f74c00;fill-rule:nonzero"
   id="path6" />
        </g>
        <g
   transform="translate(917.896,244.679)"
   id="g12">
            <path
   d="m 0,232.466 c 0,0 53.179,-2.466 123.032,-73.462 l 9.898,-21.979 c 0,0 -108.417,-107.848 60.118,-182.291 0,0 -14.755,24.112 -10.426,117.272 0,0 50.815,-17.649 65.714,-99.94 0,0 74.12,97.724 -80.502,189.377 0,0 -72.54,116.289 -174.805,105.15 z"
   style="fill:#f74c00;fill-rule:nonzero"
   id="path10" />
        </g>
        <g
   transform="translate(676.997,488.361)"
   id="g16">
            <path
   d="m 0,-78.192 c 0,0 36.935,-40.443 73.871,0 0,0 29.022,53.927 0,80.887 0,0 -47.487,37.748 -73.871,0 0,0 -31.658,-29.659 0,-80.887"
   style="fill-rule:nonzero"
   id="path14" />
        </g>
        <g
   transform="translate(719.761,425.169)"
   id="g20">
            <path
   d="m 0,0.004 c 0,15.746 -9.282,28.514 -20.732,28.514 -11.448,0 -20.73,-12.768 -20.73,-28.514 0,-15.75 9.282,-28.518 20.73,-28.518 C -9.282,-28.514 0,-15.746 0,0.004"
   style="fill:#ffffff;fill-rule:nonzero"
   id="path18" />
        </g>
        <g
   transform="translate(512.148,482.736)"
   id="g24">
            <path
   d="m 0,-83.609 c 0,0 63.355,-28.052 80.648,34.562 0,0 18.114,72.98 -52.03,77.099 0,0 -89.444,-17.228 -28.618,-111.661"
   style="fill-rule:nonzero"
   id="path22" />
        </g>
        <g
   transform="translate(543.968,426.204)"
   id="g28">
            <path
   d="m 0,0.002 c 0,16.239 -9.572,29.409 -21.381,29.409 -11.804,0 -21.379,-13.17 -21.379,-29.409 0,-16.244 9.575,-29.411 21.379,-29.411 C -9.572,-29.409 0,-16.242 0,0.002"
   style="fill:#ffffff;fill-rule:nonzero"
   id="path26" />
        </g>
        <g
   transform="translate(593.317,576.574)"
   id="g32">
            <path
   d="m 0,-40.271 80.796,-6.484 c 0,0 -2.738,13.006 -13.279,22.769 0,0 -27.79,30.47 -59.673,-2.533 0,0 -5.217,-5.629 -7.844,-13.752"
   style="fill-rule:nonzero"
   id="path30" />
        </g>
        <g
   transform="translate(269.796,270.778)"
   id="g36">
            <path
   d="m 0,190.741 c -0.667,0 -1.321,0.049 -1.973,0.101 -26.234,-5.971 -99.973,-25.185 -119.464,-56.363 0,0 99.227,-112.872 -55.86,-185.019 l 18.057,124.878 c 0,0 -47.809,-31.949 -58.126,-101.346 0,0 -116.423,84.494 51.384,165.474 0,0 15.22,57.187 161.349,102.815 l 0.107,-0.435 c 1.471,0.272 2.977,0.435 4.526,0.435 13.808,0 25.003,-11.312 25.003,-25.271 0,-13.956 -11.195,-25.269 -25.003,-25.269"
   style="fill:#f74c00;fill-rule:nonzero"
   id="path34" />
        </g>
    </g><path
     d="m 425.94679,156.59118 c 55.69228,29.82101 111.33494,59.74026 167.00756,89.60624 -26.10874,3.6741 -52.20896,7.42366 -78.32008,11.08815 -3.0791,-9.47014 -7.15569,-18.6114 -12.11519,-27.24183 -3.61847,-6.31642 -4.23664,-9.25761 -8.60427,-11.41261 -1.68135,-0.8438 -60.36015,-24.83627 -131.74854,-26.34905 -9.93536,-0.092 -9.87785,-1.62135 -20.80315,4.37988 -10.86622,6.57429 -20.79914,14.82572 -28.71398,24.79815 -23.81403,-12.9813 -47.6316,-25.95667 -71.43786,-38.95276 27.46552,-3.90049 173.10239,-24.34135 184.73551,-25.91617 z"
     id="path2024"
     style="stroke-width:0.141614" /><path
     d="m 493.82144,222.44005 c 1.47355,1.76991 22.12848,30.45148 24.72915,72.06154 -59.74466,-33.65645 -82.82411,-6.79437 -127.45179,-20.56837 -15.94482,-4.82703 -44.22852,-24.33814 -94.67898,-12.45704 7.19093,-28.79135 26.43484,-52.37059 53.02501,-65.09003 5.12672,-2.27529 73.27725,-2.4821 144.37661,26.0539 z"
     id="path2026"
     style="stroke-width:0.144993;stroke-miterlimit:4;stroke-dasharray:none" /><path
     style="fill:none;stroke:#ffffff;stroke-width:3.2;stroke-linecap:butt;stroke-linejoin:miter;stroke-miterlimit:1.41421;stroke-dasharray:none;stroke-opacity:1"
     d="m 302.50903,261.90996 c 0,0 11.96441,-3.1264 18.09727,-3.52164 7.02038,-0.45244 14.11671,0.22128 21.06233,1.33881 10.30952,1.65877 20.41759,4.57252 30.30875,7.91954 6.65447,2.25177 12.69401,6.17538 19.43625,8.14886 6.55377,1.91832 13.36753,3.07836 20.18222,3.51638 7.68442,0.49392 15.38576,-0.67521 23.07836,-1.01901 6.83809,-0.30561 13.66908,-0.98328 20.51377,-0.92785 7.8042,0.0632 15.72822,-0.15212 23.36926,1.43659 9.36461,1.94707 18.18298,6.02037 26.96875,9.80154 4.45343,1.91664 13.00571,6.51231 13.00571,6.51231 v 0"
     id="path2356" /><path
     style="fill:none;stroke:#ffffff;stroke-width:3.1;stroke-linecap:butt;stroke-linejoin:round;stroke-miterlimit:1.41421;stroke-dasharray:none;stroke-opacity:1"
     d="m 519.74183,288.80397 0.0807,3.29845 0.0202,3.22346 -1.04567,0.12562 -4.133,-2.06987 -4.30211,-2.48075 v 0 l 0.10587,-0.0271"
     id="path3805" /></g><g
   aria-label="Rust"
   transform="matrix(1.0000065,0,0,1,-343.95239,4.937236)"
   id="text5562-6"
   style="font-size:95.9997px;line-height:1.25;white-space:pre;shape-inside:url(#rect5564-3);stroke-width:0"><path
     d="m 410.80566,73.494749 h -7.19998 V 99.510668 H 389.49373 V 33.078874 h 20.73593 q 13.34396,0 20.06394,4.991985 6.71998,4.895985 6.71998,14.879954 0,6.52798 -3.26399,10.751966 -3.16799,4.223987 -9.88797,7.199978 l 17.18395,28.607911 h -16.03195 z m -7.19998,-9.983969 h 7.39198 q 5.66398,0 8.54397,-2.495992 2.87999,-2.591992 2.87999,-8.063975 0,-5.087984 -3.07199,-7.391977 -2.97599,-2.399993 -9.40797,-2.399993 h -6.33598 z"
     style="font-weight:600;font-family:'Fira Sans';-inkscape-font-specification:'Fira Sans Semi-Bold';text-align:center;text-anchor:middle"
     id="path2133" /><path
     d="M 489.81326,99.510668 H 478.0053 l -0.672,-6.815978 q -2.68799,4.223987 -6.52798,6.33598 -3.83999,2.01599 -8.92797,2.01599 -6.91198,0 -10.55997,-4.127983 -3.64799,-4.223987 -3.64799,-11.711964 V 48.630826 h 13.63196 v 34.847892 q 0,4.031988 1.344,5.759982 1.34399,1.631995 4.22398,1.631995 5.47199,0 9.31197,-6.623979 v -35.61589 h 13.63196 z"
     style="font-weight:600;font-family:'Fira Sans';-inkscape-font-specification:'Fira Sans Semi-Bold';text-align:center;text-anchor:middle"
     id="path2135" /><path
     d="m 520.14911,47.094831 q 10.75197,0 18.43195,6.143981 l -5.18399,7.775976 Q 526.96509,56.9828 520.72511,56.9828 q -3.35999,0 -5.18398,1.247996 -1.824,1.247997 -1.824,3.35999 0,1.535995 0.768,2.591992 0.864,1.055997 3.07199,2.015994 2.30399,0.959997 6.81598,2.303993 8.06398,2.207993 11.99996,5.951981 3.93599,3.647989 3.93599,10.079969 0,5.087984 -2.97599,8.831973 -2.87999,3.743988 -7.87197,5.759982 -4.99199,1.91999 -11.13597,1.91999 -6.43198,0 -11.71196,-1.91999 -5.27999,-2.015994 -9.02398,-5.471983 l 6.71998,-7.487977 q 6.43198,4.991984 13.63196,4.991984 3.83999,0 6.04798,-1.439995 2.30399,-1.535995 2.30399,-4.127987 0,-2.015994 -0.86399,-3.167991 -0.864,-1.151996 -3.16799,-2.111993 -2.304,-1.055997 -7.19998,-2.399993 -7.67998,-2.111993 -11.42396,-5.951981 -3.64799,-3.935988 -3.64799,-9.69597 0,-4.319987 2.49599,-7.775976 2.49599,-3.455989 7.00798,-5.375983 4.60798,-2.015994 10.65596,-2.015994 z"
     style="font-weight:600;font-family:'Fira Sans';-inkscape-font-specification:'Fira Sans Semi-Bold';text-align:center;text-anchor:middle"
     id="path2137" /><path
     d="m 579.66876,97.110676 q -2.78399,1.919994 -6.33598,2.879991 -3.45599,1.055993 -6.91198,1.055993 -7.87197,-0.096 -11.90396,-4.511982 -4.03199,-4.415987 -4.03199,-12.95996 V 58.230796 h -7.58398 v -9.59997 h 7.58398 V 37.494861 l 13.63196,-1.631995 v 12.76796 h 11.71196 l -1.34399,9.59997 h -10.36797 v 25.055923 q 0,3.647988 1.24799,5.279983 1.248,1.631995 3.83999,1.631995 2.59199,0 5.75999,-1.727994 z"
     style="font-weight:600;font-family:'Fira Sans';-inkscape-font-specification:'Fira Sans Semi-Bold';text-align:center;text-anchor:middle"
     id="path2139" /></g><g
   aria-label="Edu"
   transform="matrix(1.0000065,0,0,1,3.7436418,8.0572263)"
   id="text5562-6-5"
   style="font-size:95.9997px;line-height:1.25;white-space:pre;shape-inside:url(#rect5564-3-3);stroke-width:0"><path
     d="m 446.70942,33.078874 -1.536,10.271969 H 421.1735 v 17.279946 h 20.92793 V 70.806757 H 421.1735 v 18.335944 h 25.72792 V 99.510668 H 407.06154 V 33.078874 Z"
     style="font-weight:600;font-family:'Fira Sans';-inkscape-font-specification:'Fira Sans Semi-Bold';text-align:center;text-anchor:middle"
     id="path2335" /><path
     d="m 499.6052,28.374889 v 71.135779 h -11.99996 l -0.768,-6.23998 q -5.37599,7.775972 -14.59196,7.775972 -9.40797,0 -14.39995,-7.199974 -4.89599,-7.295977 -4.89599,-19.775939 0,-7.871975 2.496,-13.919957 2.59199,-6.14398 7.29597,-9.59997 4.70399,-3.455989 10.84797,-3.455989 7.10398,0 12.38396,5.087984 V 26.838894 Z m -23.32793,62.495806 q 2.97599,0 5.27998,-1.439995 2.304,-1.535996 4.41599,-4.703986 V 61.974785 q -2.01599,-2.399993 -4.12799,-3.551989 -2.01599,-1.247996 -4.70398,-1.247996 -4.70399,0 -7.39198,4.127987 -2.59199,4.127987 -2.59199,12.76796 0,9.119972 2.30399,12.95996 2.39999,3.839988 6.81598,3.839988 z"
     style="font-weight:600;font-family:'Fira Sans';-inkscape-font-specification:'Fira Sans Semi-Bold';text-align:center;text-anchor:middle"
     id="path2337" /><path
     d="m 554.70893,99.510668 h -11.80796 l -0.672,-6.815978 q -2.68799,4.223987 -6.52798,6.33598 -3.83999,2.01599 -8.92797,2.01599 -6.91198,0 -10.55997,-4.127983 -3.64799,-4.223987 -3.64799,-11.711964 V 48.630826 h 13.63196 v 34.847892 q 0,4.031988 1.34399,5.759982 1.344,1.631995 4.22399,1.631995 5.47198,0 9.31197,-6.623979 v -35.61589 h 13.63196 z"
     style="font-weight:600;font-family:'Fira Sans';-inkscape-font-specification:'Fira Sans Semi-Bold';text-align:center;text-anchor:middle"
     id="path2339" /></g></svg>
